<mxfile host="app.diagrams.net" agent="Mozilla/5.0 (Windows NT 10.0; Win64; x64) AppleWebKit/537.36 (KHTML, like Gecko) Chrome/136.0.0.0 Safari/537.36" version="27.0.4">
  <diagram name="第 1 页" id="QB1j9keIOCnqLUpbqoPo">
    <mxGraphModel dx="1042" dy="562" grid="1" gridSize="10" guides="1" tooltips="1" connect="1" arrows="1" fold="1" page="1" pageScale="1" pageWidth="827" pageHeight="1169" math="0" shadow="0">
      <root>
        <mxCell id="0" />
        <mxCell id="1" parent="0" />
        <mxCell id="HreFdPMkTjPa5nh6qZb4-3" value="" style="edgeStyle=orthogonalEdgeStyle;rounded=0;orthogonalLoop=1;jettySize=auto;html=1;" edge="1" parent="1" source="HreFdPMkTjPa5nh6qZb4-1" target="HreFdPMkTjPa5nh6qZb4-2">
          <mxGeometry relative="1" as="geometry" />
        </mxCell>
        <mxCell id="HreFdPMkTjPa5nh6qZb4-1" value="&lt;font style=&quot;font-size: 18px;&quot;&gt;开始&lt;/font&gt;" style="strokeWidth=2;html=1;shape=mxgraph.flowchart.terminator;whiteSpace=wrap;" vertex="1" parent="1">
          <mxGeometry x="120" y="80" width="100" height="60" as="geometry" />
        </mxCell>
        <mxCell id="HreFdPMkTjPa5nh6qZb4-5" value="" style="edgeStyle=orthogonalEdgeStyle;rounded=0;orthogonalLoop=1;jettySize=auto;html=1;" edge="1" parent="1" source="HreFdPMkTjPa5nh6qZb4-2" target="HreFdPMkTjPa5nh6qZb4-4">
          <mxGeometry relative="1" as="geometry" />
        </mxCell>
        <mxCell id="HreFdPMkTjPa5nh6qZb4-2" value="知识库准备" style="whiteSpace=wrap;html=1;strokeWidth=2;" vertex="1" parent="1">
          <mxGeometry x="290" y="85" width="100" height="50" as="geometry" />
        </mxCell>
        <mxCell id="HreFdPMkTjPa5nh6qZb4-7" value="" style="edgeStyle=orthogonalEdgeStyle;rounded=0;orthogonalLoop=1;jettySize=auto;html=1;" edge="1" parent="1" source="HreFdPMkTjPa5nh6qZb4-4" target="HreFdPMkTjPa5nh6qZb4-6">
          <mxGeometry relative="1" as="geometry" />
        </mxCell>
        <mxCell id="HreFdPMkTjPa5nh6qZb4-4" value="知识库" style="strokeWidth=2;html=1;shape=mxgraph.flowchart.multi-document;whiteSpace=wrap;" vertex="1" parent="1">
          <mxGeometry x="460" y="80" width="88" height="60" as="geometry" />
        </mxCell>
        <mxCell id="HreFdPMkTjPa5nh6qZb4-9" value="" style="edgeStyle=orthogonalEdgeStyle;rounded=0;orthogonalLoop=1;jettySize=auto;html=1;" edge="1" parent="1" source="HreFdPMkTjPa5nh6qZb4-6" target="HreFdPMkTjPa5nh6qZb4-8">
          <mxGeometry relative="1" as="geometry" />
        </mxCell>
        <mxCell id="HreFdPMkTjPa5nh6qZb4-6" value="上传知识库" style="whiteSpace=wrap;html=1;strokeWidth=2;" vertex="1" parent="1">
          <mxGeometry x="454" y="190" width="100" height="50" as="geometry" />
        </mxCell>
        <mxCell id="HreFdPMkTjPa5nh6qZb4-11" value="" style="edgeStyle=orthogonalEdgeStyle;rounded=0;orthogonalLoop=1;jettySize=auto;html=1;" edge="1" parent="1" source="HreFdPMkTjPa5nh6qZb4-8" target="HreFdPMkTjPa5nh6qZb4-10">
          <mxGeometry relative="1" as="geometry" />
        </mxCell>
        <mxCell id="HreFdPMkTjPa5nh6qZb4-8" value="文本分割处理" style="whiteSpace=wrap;html=1;strokeWidth=2;" vertex="1" parent="1">
          <mxGeometry x="290" y="190" width="100" height="50" as="geometry" />
        </mxCell>
        <mxCell id="HreFdPMkTjPa5nh6qZb4-13" value="" style="edgeStyle=orthogonalEdgeStyle;rounded=0;orthogonalLoop=1;jettySize=auto;html=1;" edge="1" parent="1" source="HreFdPMkTjPa5nh6qZb4-10" target="HreFdPMkTjPa5nh6qZb4-12">
          <mxGeometry relative="1" as="geometry" />
        </mxCell>
        <mxCell id="HreFdPMkTjPa5nh6qZb4-10" value="向量化嵌入" style="whiteSpace=wrap;html=1;strokeWidth=2;" vertex="1" parent="1">
          <mxGeometry x="120" y="190" width="100" height="50" as="geometry" />
        </mxCell>
        <mxCell id="HreFdPMkTjPa5nh6qZb4-15" value="" style="edgeStyle=orthogonalEdgeStyle;rounded=0;orthogonalLoop=1;jettySize=auto;html=1;" edge="1" parent="1" source="HreFdPMkTjPa5nh6qZb4-12" target="HreFdPMkTjPa5nh6qZb4-14">
          <mxGeometry relative="1" as="geometry" />
        </mxCell>
        <mxCell id="HreFdPMkTjPa5nh6qZb4-12" value="向量数据库" style="strokeWidth=2;html=1;shape=mxgraph.flowchart.database;whiteSpace=wrap;" vertex="1" parent="1">
          <mxGeometry x="125" y="290" width="90" height="60" as="geometry" />
        </mxCell>
        <mxCell id="HreFdPMkTjPa5nh6qZb4-14" value="&lt;font style=&quot;font-size: 18px;&quot;&gt;结束&lt;/font&gt;" style="strokeWidth=2;html=1;shape=mxgraph.flowchart.terminator;whiteSpace=wrap;" vertex="1" parent="1">
          <mxGeometry x="290" y="290" width="100" height="60" as="geometry" />
        </mxCell>
      </root>
    </mxGraphModel>
  </diagram>
</mxfile>
